<svg width="171" height="97" viewBox="0 0 171 97" fill="none" xmlns="http://www.w3.org/2000/svg">
<path d="M13.104 62.728V56.2C12.944 56.232 12.688 56.264 12.336 56.296C11.984 56.328 11.68 56.344 11.424 56.344C9.472 56.344 7.808 56.04 6.432 55.432C5.088 54.824 4.064 53.768 3.36 52.264C2.656 50.76 2.304 48.696 2.304 46.072V36.376C2.304 33.784 2.64 31.736 3.312 30.232C3.984 28.728 4.944 27.656 6.192 27.016C7.472 26.344 8.992 26.008 10.752 26.008C11.2 26.008 11.648 26.024 12.096 26.056C12.544 26.056 12.88 26.072 13.104 26.104V18.616H18.528V26.104C18.848 26.072 19.248 26.056 19.728 26.056C20.208 26.024 20.624 26.008 20.976 26.008C22.8 26.008 24.336 26.344 25.584 27.016C26.864 27.656 27.824 28.744 28.464 30.28C29.136 31.784 29.472 33.816 29.472 36.376V46.072C29.472 48.664 29.136 50.712 28.464 52.216C27.792 53.72 26.864 54.792 25.68 55.432C24.496 56.04 23.152 56.344 21.648 56.344C21.136 56.344 20.624 56.328 20.112 56.296C19.6 56.264 19.072 56.232 18.528 56.2V62.728H13.104ZM11.76 53.08C12.016 53.08 12.272 53.08 12.528 53.08C12.784 53.048 12.976 53.016 13.104 52.984V29.368C12.816 29.336 12.528 29.32 12.24 29.32C11.952 29.288 11.68 29.272 11.424 29.272C10.368 29.272 9.536 29.48 8.928 29.896C8.32 30.312 7.888 31.032 7.632 32.056C7.376 33.08 7.248 34.52 7.248 36.376V46.072C7.248 47.928 7.36 49.368 7.584 50.392C7.808 51.416 8.24 52.12 8.88 52.504C9.52 52.888 10.48 53.08 11.76 53.08ZM20.304 53.08C21.456 53.08 22.336 52.888 22.944 52.504C23.552 52.12 23.968 51.416 24.192 50.392C24.416 49.368 24.528 47.928 24.528 46.072V36.376C24.528 34.52 24.416 33.08 24.192 32.056C23.968 31.032 23.552 30.312 22.944 29.896C22.336 29.48 21.424 29.272 20.208 29.272C19.92 29.272 19.632 29.288 19.344 29.32C19.056 29.32 18.784 29.336 18.528 29.368V52.984C18.752 53.016 19.024 53.048 19.344 53.08C19.664 53.08 19.984 53.08 20.304 53.08ZM44.7413 61.432C42.1173 61.432 40.0213 60.92 38.4533 59.896C36.8853 58.872 35.7653 57.416 35.0933 55.528C34.4213 53.608 34.0853 51.368 34.0853 48.808V34.072C34.0853 31.512 34.4213 29.32 35.0933 27.496C35.7973 25.64 36.9173 24.232 38.4533 23.272C40.0213 22.28 42.1173 21.784 44.7413 21.784C47.3653 21.784 49.4453 22.28 50.9813 23.272C52.5173 24.264 53.6213 25.672 54.2933 27.496C54.9973 29.32 55.3493 31.512 55.3493 34.072V48.856C55.3493 51.384 54.9973 53.592 54.2933 55.48C53.6213 57.368 52.5173 58.84 50.9813 59.896C49.4453 60.92 47.3653 61.432 44.7413 61.432ZM44.7413 57.16C46.1813 57.16 47.2693 56.872 48.0053 56.296C48.7413 55.688 49.2373 54.856 49.4933 53.8C49.7493 52.712 49.8773 51.448 49.8773 50.008V32.968C49.8773 31.528 49.7493 30.296 49.4933 29.272C49.2373 28.216 48.7413 27.416 48.0053 26.872C47.2693 26.296 46.1813 26.008 44.7413 26.008C43.3013 26.008 42.1973 26.296 41.4293 26.872C40.6933 27.416 40.1973 28.216 39.9413 29.272C39.6853 30.296 39.5573 31.528 39.5573 32.968V50.008C39.5573 51.448 39.6853 52.712 39.9413 53.8C40.1973 54.856 40.6933 55.688 41.4293 56.296C42.1973 56.872 43.3013 57.16 44.7413 57.16ZM64.9523 61V26.152H58.3763V22.12H76.7603V26.152H70.3763V61H64.9523ZM90.4444 61.432C87.8204 61.432 85.7244 60.92 84.1564 59.896C82.5884 58.872 81.4684 57.416 80.7964 55.528C80.1244 53.608 79.7884 51.368 79.7884 48.808V34.072C79.7884 31.512 80.1244 29.32 80.7964 27.496C81.5004 25.64 82.6204 24.232 84.1564 23.272C85.7244 22.28 87.8204 21.784 90.4444 21.784C93.0684 21.784 95.1484 22.28 96.6844 23.272C98.2204 24.264 99.3244 25.672 99.9964 27.496C100.7 29.32 101.052 31.512 101.052 34.072V48.856C101.052 51.384 100.7 53.592 99.9964 55.48C99.3244 57.368 98.2204 58.84 96.6844 59.896C95.1484 60.92 93.0684 61.432 90.4444 61.432ZM90.4444 57.16C91.8844 57.16 92.9724 56.872 93.7084 56.296C94.4444 55.688 94.9404 54.856 95.1964 53.8C95.4524 52.712 95.5804 51.448 95.5804 50.008V32.968C95.5804 31.528 95.4524 30.296 95.1964 29.272C94.9404 28.216 94.4444 27.416 93.7084 26.872C92.9724 26.296 91.8844 26.008 90.4444 26.008C89.0044 26.008 87.9004 26.296 87.1324 26.872C86.3964 27.416 85.9004 28.216 85.6444 29.272C85.3884 30.296 85.2604 31.528 85.2604 32.968V50.008C85.2604 51.448 85.3884 52.712 85.6444 53.8C85.9004 54.856 86.3964 55.688 87.1324 56.296C87.9004 56.872 89.0044 57.16 90.4444 57.16Z" fill="white"/>
<path d="M65.2 86C64.352 86 63.928 85.576 63.928 84.728C63.928 84.312 64.112 83.872 64.48 83.408L79.168 65.264L80.128 65.84H69.256C68.088 65.84 67.24 66.008 66.712 66.344C66.184 66.68 65.848 67.312 65.704 68.24C65.64 68.64 65.504 68.944 65.296 69.152C65.104 69.36 64.816 69.464 64.432 69.464C64 69.464 63.672 69.352 63.448 69.128C63.224 68.904 63.136 68.576 63.184 68.144C63.36 66.48 63.944 65.264 64.936 64.496C65.944 63.712 67.384 63.32 69.256 63.32H81.016C81.848 63.32 82.264 63.736 82.264 64.568C82.264 65.032 82.088 65.488 81.736 65.936L67.288 83.84L66.4 83.456L77.992 83.48C79.096 83.48 79.928 83.296 80.488 82.928C81.048 82.544 81.392 81.92 81.52 81.056C81.616 80.656 81.76 80.352 81.952 80.144C82.144 79.936 82.44 79.832 82.84 79.832C83.272 79.832 83.6 79.952 83.824 80.192C84.048 80.416 84.128 80.736 84.064 81.152C83.632 84.384 81.608 86 77.992 86H65.2ZM97.3165 86C94.3245 86 92.1325 85.312 90.7405 83.936C89.3485 82.544 88.6525 80.36 88.6525 77.384V71.96C88.6525 68.936 89.3485 66.736 90.7405 65.36C92.1325 63.968 94.3245 63.288 97.3165 63.32H101.253C104.245 63.32 106.429 64.016 107.805 65.408C109.197 66.784 109.893 68.968 109.893 71.96V77.336C109.893 80.328 109.197 82.52 107.805 83.912C106.429 85.304 104.245 86 101.253 86H97.3165ZM91.1725 77.384C91.1725 79.64 91.6205 81.224 92.5165 82.136C93.4285 83.032 95.0285 83.48 97.3165 83.48H101.253C103.541 83.48 105.133 83.032 106.029 82.136C106.925 81.224 107.373 79.624 107.373 77.336V71.96C107.373 69.672 106.925 68.08 106.029 67.184C105.133 66.288 103.541 65.84 101.253 65.84H97.3165C95.7805 65.824 94.5645 66.008 93.6685 66.392C92.7725 66.776 92.1325 67.416 91.7485 68.312C91.3645 69.208 91.1725 70.424 91.1725 71.96V77.384ZM119.494 86C118.646 86 118.222 85.576 118.222 84.728V64.568C118.222 63.736 118.646 63.32 119.494 63.32C120.326 63.32 120.742 63.736 120.742 64.568V66.872C122.262 64.504 125.014 63.32 128.998 63.32H130.342C133.334 63.32 135.518 64.016 136.894 65.408C138.286 66.784 138.982 68.968 138.982 71.96V84.728C138.982 85.576 138.566 86 137.734 86C136.886 86 136.462 85.576 136.462 84.728V71.96C136.462 69.672 136.006 68.08 135.094 67.184C134.198 66.288 132.614 65.84 130.342 65.84H128.998C126.518 65.84 124.566 66.232 123.142 67.016C121.718 67.8 120.918 69.024 120.742 70.688V84.728C120.742 85.576 120.326 86 119.494 86ZM153.326 86C150.83 86 148.998 85.424 147.83 84.272C146.678 83.104 146.102 81.272 146.102 78.776C146.102 76.28 146.686 74.448 147.854 73.28C149.022 72.112 150.846 71.528 153.326 71.528H164.246C164.214 69.416 163.734 67.944 162.806 67.112C161.894 66.264 160.334 65.84 158.126 65.84H155.342C153.31 65.84 151.822 66.056 150.878 66.488C149.934 66.92 149.35 67.656 149.126 68.696C149.014 69.096 148.862 69.392 148.67 69.584C148.494 69.76 148.206 69.848 147.806 69.848C147.39 69.848 147.062 69.736 146.822 69.512C146.598 69.272 146.518 68.952 146.582 68.552C146.79 66.728 147.614 65.4 149.054 64.568C150.51 63.736 152.606 63.32 155.342 63.32H158.126C161.118 63.32 163.302 64.016 164.678 65.408C166.07 66.784 166.766 68.968 166.766 71.96V84.728C166.766 85.576 166.35 86 165.518 86C164.67 86 164.246 85.576 164.246 84.728V82.352C162.71 84.784 159.966 86 156.014 86H153.326ZM153.326 83.48H156.014C157.566 83.48 158.926 83.312 160.094 82.976C161.278 82.624 162.23 82.064 162.95 81.296C163.67 80.528 164.102 79.504 164.246 78.224V74.048H153.326C151.55 74.048 150.318 74.392 149.63 75.08C148.958 75.752 148.622 76.984 148.622 78.776C148.622 80.552 148.958 81.784 149.63 82.472C150.318 83.144 151.55 83.48 153.326 83.48Z" fill="white"/>
<path fill-rule="evenodd" clip-rule="evenodd" d="M154 1H23V9H22V1V0H23H154H155V1V51H154V1ZM111 96H23V73H22V96V97H23H111V96Z" fill="white"/>
</svg>
